<svg width="30" height="30" viewBox="0 0 30 30" fill="none" xmlns="http://www.w3.org/2000/svg">
<path d="M10.5788 4.37937C10.5788 2.64812 11.9963 1.25 13.7319 1.25H16.2682C18.0069 1.25 19.4213 2.64562 19.4213 4.37937V5.23375C20.1121 5.52674 20.7705 5.891 21.3857 6.32062L22.1307 5.89687C23.6344 5.04062 25.5588 5.54875 26.4301 7.03562L27.6988 9.20063C28.5776 10.7006 28.0551 12.6194 26.5382 13.4819L25.8782 13.8575C25.9606 14.6169 25.9606 15.3831 25.8782 16.1425L26.5382 16.5175C28.0544 17.38 28.5776 19.2988 27.6982 20.7994L26.4294 22.9644C25.5588 24.4519 23.6344 24.9587 22.1307 24.1031L21.3857 23.6794C20.7705 24.109 20.1121 24.4733 19.4213 24.7662V25.6206C19.4213 27.3519 18.0038 28.75 16.2682 28.75H13.7319C11.9932 28.75 10.5788 27.3544 10.5788 25.6206V24.61C9.95746 24.3197 9.36519 23.9708 8.81006 23.5681L7.86943 24.1031C6.36568 24.9594 4.44131 24.4512 3.57006 22.9644L2.30131 20.7994C1.42256 19.2994 1.94506 17.3806 3.46193 16.5181L4.45506 15.9531C4.39785 15.319 4.39785 14.681 4.45506 14.0469L3.46193 13.4825C1.94568 12.62 1.42256 10.7013 2.30193 9.20063L3.57068 7.03562C4.44131 5.54812 6.36568 5.04125 7.86943 5.89687L8.81006 6.43187C9.36519 6.02916 9.95746 5.68029 10.5788 5.39V4.37937ZM13.0788 6.22187C13.0788 6.47712 13.0006 6.72623 12.8548 6.93572C12.709 7.14522 12.5025 7.30505 12.2632 7.39375C11.3398 7.73568 10.4848 8.23938 9.73818 8.88125C9.54283 9.04941 9.30026 9.15306 9.04371 9.17801C8.78715 9.20296 8.52916 9.14799 8.30506 9.02063L6.63318 8.06937C6.31506 7.88812 5.90443 7.99688 5.72693 8.29938L4.45881 10.4644C4.28631 10.7588 4.38818 11.1331 4.69818 11.3094L6.42256 12.2906C6.64678 12.4183 6.82602 12.6121 6.93569 12.8457C7.04535 13.0792 7.08006 13.341 7.03506 13.595C6.87032 14.5244 6.87032 15.4756 7.03506 16.405C7.0802 16.6591 7.04555 16.921 6.93588 17.1547C6.82621 17.3884 6.6469 17.5823 6.42256 17.71L4.69818 18.6906C4.38818 18.8669 4.28631 19.2412 4.45881 19.5356L5.72756 21.7006C5.90443 22.0031 6.31506 22.1112 6.63381 21.9306L8.30506 20.9794C8.5291 20.8519 8.78705 20.7968 9.04361 20.8217C9.30016 20.8465 9.54276 20.9501 9.73818 21.1181C10.4848 21.76 11.3398 22.2637 12.2632 22.6056C12.5026 22.6944 12.7091 22.8543 12.855 23.0639C13.0008 23.2735 13.0789 23.5228 13.0788 23.7781V25.6206C13.0788 25.9662 13.3663 26.25 13.7319 26.25H16.2682C16.6307 26.25 16.9213 25.9631 16.9213 25.6206V23.9006C16.9215 23.637 17.005 23.3802 17.1599 23.167C17.3148 22.9537 17.5332 22.7948 17.7838 22.7131C18.7714 22.3901 19.6894 21.8842 20.4901 21.2219C20.6856 21.0602 20.9256 20.9618 21.1784 20.9398C21.4311 20.9178 21.6846 20.9733 21.9051 21.0987L23.3669 21.93C23.6851 22.1112 24.0957 22.0031 24.2732 21.7006L25.5413 19.5356C25.7138 19.2412 25.6119 18.8669 25.3019 18.6906L23.8957 17.8906C23.6676 17.7609 23.4862 17.5627 23.377 17.3241C23.2679 17.0855 23.2366 16.8186 23.2876 16.5612C23.3882 16.0512 23.4394 15.5294 23.4394 15C23.4394 14.4706 23.3882 13.9487 23.2876 13.4387C23.2366 13.1814 23.2679 12.9145 23.377 12.6759C23.4862 12.4373 23.6676 12.2391 23.8957 12.1094L25.3019 11.3094C25.6119 11.1331 25.7138 10.7588 25.5413 10.4644L24.2726 8.29938C24.0957 7.99688 23.6851 7.88875 23.3663 8.06937L21.9051 8.90063C21.6847 9.02607 21.4314 9.08153 21.1788 9.05965C20.9262 9.03777 20.6862 8.93959 20.4907 8.77813C19.6896 8.11587 18.7712 7.6102 17.7832 7.2875C17.5326 7.20564 17.3143 7.04666 17.1595 6.83326C17.0047 6.61987 16.9213 6.363 16.9213 6.09937V4.37937C16.9213 4.03375 16.6338 3.75 16.2682 3.75H13.7319C13.3694 3.75 13.0788 4.03687 13.0788 4.37937V6.22187ZM15.0001 19.375C13.8397 19.375 12.7269 18.9141 11.9065 18.0936C11.086 17.2731 10.6251 16.1603 10.6251 15C10.6251 13.8397 11.086 12.7269 11.9065 11.9064C12.7269 11.0859 13.8397 10.625 15.0001 10.625C16.1604 10.625 17.2732 11.0859 18.0937 11.9064C18.9141 12.7269 19.3751 13.8397 19.3751 15C19.3751 16.1603 18.9141 17.2731 18.0937 18.0936C17.2732 18.9141 16.1604 19.375 15.0001 19.375ZM15.0001 16.875C15.4973 16.875 15.9743 16.6775 16.3259 16.3258C16.6775 15.9742 16.8751 15.4973 16.8751 15C16.8751 14.5027 16.6775 14.0258 16.3259 13.6742C15.9743 13.3225 15.4973 13.125 15.0001 13.125C14.5028 13.125 14.0259 13.3225 13.6742 13.6742C13.3226 14.0258 13.1251 14.5027 13.1251 15C13.1251 15.4973 13.3226 15.9742 13.6742 16.3258C14.0259 16.6775 14.5028 16.875 15.0001 16.875Z" fill="white"/>
</svg>
