<svg width="40" height="40" viewBox="0 0 40 40" fill="none" xmlns="http://www.w3.org/2000/svg">
<path d="M34.6399 29.16C35.4132 29.96 35.9799 30.6933 36.3399 31.36C36.6999 32.0267 36.6399 32.7867 36.1599 33.64C36.0532 33.8 35.9066 33.9933 35.7199 34.22C35.5332 34.4467 35.3399 34.6667 35.1399 34.88C34.9399 35.0933 34.7399 35.2867 34.5399 35.46C34.3399 35.6333 34.1732 35.76 34.0399 35.84C33.3732 36.24 32.5866 36.3467 31.6799 36.16C30.7732 35.9733 29.9599 35.52 29.2399 34.8L27.5599 33.12L25.3199 30.88L22.6799 28.24L19.7999 25.36L14.6799 30.48C13.1066 32.0533 11.8266 33.3467 10.8399 34.36C9.82657 35.3733 8.81991 36 7.81991 36.24C6.81991 36.48 5.93324 36.2533 5.15991 35.56L4.87991 35.28L4.43991 34.84L3.99991 34.4C3.83991 34.24 3.74658 34.1333 3.71991 34.08C3.42658 33.7067 3.25324 33.3267 3.19991 32.94C3.14657 32.5533 3.17991 32.1733 3.29991 31.8C3.41991 31.4267 3.59991 31.0667 3.83991 30.72C4.07991 30.3733 4.34657 30.0533 4.63991 29.76C4.87991 29.5467 5.30657 29.1467 5.91991 28.56L8.07991 26.32C8.95991 25.4667 9.93991 24.5067 11.0199 23.44C12.0999 22.3733 13.2266 21.2533 14.3999 20.08C13.1199 18.8 11.8999 17.5867 10.7399 16.44C9.57991 15.2933 8.53991 14.2667 7.61991 13.36C6.69991 12.4533 5.94657 11.7133 5.35991 11.14C4.77324 10.5667 4.41324 10.2133 4.27991 10.08C3.58658 9.38667 3.23324 8.7 3.21991 8.02C3.20658 7.34 3.43991 6.65333 3.91991 5.96C4.13324 5.69333 4.43991 5.38 4.83991 5.02C5.23991 4.66 5.51991 4.42666 5.67991 4.32C6.47991 3.78666 7.19991 3.55333 7.83991 3.62C8.47991 3.68666 9.11991 4.05333 9.75991 4.72L10.9999 5.96C11.6132 6.57333 12.3732 7.32 13.2799 8.2C14.1866 9.08 15.2066 10.0733 16.3399 11.18C17.4732 12.2867 18.6532 13.44 19.8799 14.64C20.8932 13.6267 21.8866 12.64 22.8599 11.68C23.8332 10.72 24.7399 9.82 25.5799 8.98C26.4199 8.14 27.1799 7.38667 27.8599 6.72C28.5399 6.05333 29.1066 5.49333 29.5599 5.04C30.1999 4.42666 30.8932 4.02 31.6399 3.82C32.3866 3.62 33.1066 3.78666 33.7999 4.32C33.8266 4.34666 33.9132 4.41333 34.0599 4.52C34.2066 4.62666 34.3532 4.74666 34.4999 4.88C34.6466 5.01333 34.7866 5.14 34.9199 5.26C35.0532 5.38 35.1466 5.45333 35.1999 5.48C35.9199 6.17333 36.2732 6.92666 36.2599 7.74C36.2466 8.55333 35.8932 9.30666 35.1999 10C34.7199 10.48 34.1266 11.08 33.4199 11.8C32.7132 12.52 31.9266 13.3067 31.0599 14.16C30.1932 15.0133 29.2799 15.92 28.3199 16.88L25.2799 19.92C26.2666 20.88 27.2332 21.82 28.1799 22.74C29.1266 23.66 30.0066 24.52 30.8199 25.32C31.6332 26.12 32.3666 26.8533 33.0199 27.52C33.6732 28.1867 34.2132 28.7333 34.6399 29.16Z" fill="white"/>
</svg>
