<svg width="30" height="30" viewBox="0 0 30 30" fill="none" xmlns="http://www.w3.org/2000/svg">
<path d="M24.4825 16.25H10.62C10.456 16.2502 10.2937 16.2179 10.1422 16.1551C9.99075 16.0923 9.85322 16.0001 9.73751 15.884C9.6218 15.7678 9.53021 15.6299 9.46799 15.4782C9.40578 15.3265 9.37418 15.164 9.375 15C9.375 14.6695 9.50592 14.3524 9.73913 14.1181C9.97233 13.8838 10.2888 13.7515 10.6194 13.75H24.4819L19.7412 9.00875C19.5136 8.773 19.3876 8.45724 19.3904 8.1295C19.3933 7.80175 19.5247 7.48824 19.7565 7.25648C19.9882 7.02472 20.3018 6.89326 20.6295 6.89041C20.9572 6.88756 21.273 7.01355 21.5087 7.24125L28.3837 14.1163C28.6181 14.3507 28.7497 14.6685 28.7497 15C28.7497 15.3315 28.6181 15.6493 28.3837 15.8838L21.5087 22.7588C21.273 22.9864 20.9572 23.1124 20.6295 23.1096C20.3018 23.1067 19.9882 22.9753 19.7565 22.7435C19.5247 22.5118 19.3933 22.1982 19.3904 21.8705C19.3876 21.5428 19.5136 21.227 19.7412 20.9913L24.4825 16.25ZM16.25 1.25C16.4142 1.24998 16.5767 1.28229 16.7284 1.3451C16.8801 1.4079 17.0179 1.49997 17.134 1.61605C17.2501 1.73213 17.3422 1.86993 17.405 2.0216C17.4679 2.17327 17.5002 2.33583 17.5002 2.5C17.5002 2.66417 17.4679 2.82673 17.405 2.9784C17.3422 3.13007 17.2501 3.26788 17.134 3.38395C17.0179 3.50003 16.8801 3.5921 16.7284 3.65491C16.5767 3.71771 16.4142 3.75003 16.25 3.75H4.38063C4.03063 3.75 3.75 4.03063 3.75 4.37938V25.6206C3.75 25.9688 4.03125 26.25 4.38063 26.25H16.25C16.4142 26.25 16.5767 26.2823 16.7284 26.3451C16.8801 26.4079 17.0179 26.5 17.134 26.616C17.2501 26.7321 17.3422 26.8699 17.405 27.0216C17.4679 27.1733 17.5002 27.3358 17.5002 27.5C17.5002 27.6642 17.4679 27.8267 17.405 27.9784C17.3422 28.1301 17.2501 28.2679 17.134 28.384C17.0179 28.5 16.8801 28.5921 16.7284 28.6549C16.5767 28.7177 16.4142 28.75 16.25 28.75H4.38063C3.96956 28.7502 3.5625 28.6693 3.18268 28.5122C2.80286 28.355 2.45774 28.1245 2.16701 27.8339C1.87629 27.5433 1.64567 27.1982 1.48833 26.8185C1.33099 26.4387 1.25 26.0317 1.25 25.6206V4.37938C1.24984 3.96827 1.33071 3.56116 1.48799 3.18133C1.64528 2.8015 1.87589 2.4564 2.16665 2.16576C2.4574 1.87513 2.8026 1.64465 3.18249 1.48752C3.56238 1.33038 3.96952 1.24967 4.38063 1.25H16.25Z" fill="white"/>
</svg>
