<svg width="160" height="35" viewBox="0 0 160 35" fill="none" xmlns="http://www.w3.org/2000/svg">
<path d="M158.1 9.14925L157.658 8.49384C157.274 7.92101 157.169 7.83035 156.843 7.73218V7.71601C157.486 7.65076 157.869 7.29909 157.869 6.8071C157.869 6.29144 157.486 5.89935 156.67 5.89935H154.789V9.14925H155.555V7.8136H155.7C156.037 7.8136 156.171 7.84709 156.324 7.9776C156.478 8.10868 156.709 8.38759 156.843 8.61684L157.15 9.14925H158.1ZM155.555 7.29909V6.40577H156.267C156.786 6.40577 157.055 6.56169 157.055 6.84868C157.055 7.07793 156.881 7.29909 156.353 7.29909H155.555ZM156.411 5.05454C158.003 5.05454 159.3 6.15227 159.3 7.51217C159.3 8.87091 158.003 9.97673 156.411 9.97673C154.817 9.97673 153.531 8.87091 153.531 7.51217C153.531 6.15227 154.817 5.05454 156.411 5.05454ZM156.411 4.44995C154.423 4.44995 152.821 5.81735 152.821 7.51217C152.821 9.20641 154.423 10.5732 156.411 10.5732C158.397 10.5732 160 9.20641 160 7.51217C160 5.81735 158.397 4.44995 156.411 4.44995Z" fill="white"/>
<path d="M41.0268 17.5002L37.4461 14.0003V16.5463L37.0061 16.5469C36.4565 9.51639 29.8717 3.89722 21.6306 3.43006L21.6313 3.05471H24.6157L20.5131 -7.01127e-06L16.4105 3.05471H19.3949V3.43006C11.1544 3.89952 4.56764 9.5164 4.02003 16.5474L3.58006 16.5469V14.0003L0 17.5002L3.58006 21.0008V18.4542L4.02003 18.4536C4.57034 25.4847 11.1551 31.1027 19.3962 31.5704L19.3949 31.9458H16.4105L20.5131 35.0005L24.6157 31.9458H21.6313V31.5704C29.8724 31.101 36.4585 25.4841 37.0061 18.453L37.4461 18.4536V21.0008L41.0268 17.5002ZM36.0064 15.7003L22.6236 4.28237C29.5719 5.08214 35.0709 9.77278 36.0064 15.7003ZM21.6326 4.51682L35.7329 16.5457H27.8972C28.985 15.8493 29.6883 14.7406 29.6883 13.491C29.6883 11.3821 27.6847 9.67288 25.2127 9.67288C23.7486 9.67288 22.4483 10.2729 21.6326 11.2002V4.51682ZM21.6326 13.491C21.6326 11.8043 23.2348 10.4369 25.2127 10.4369C27.1899 10.4369 28.7934 11.8043 28.7934 13.491C28.7934 15.1783 27.1899 16.5457 25.2127 16.5457H21.6326V13.491ZM15.8134 9.67288C13.3421 9.67288 11.3379 11.3821 11.3379 13.491C11.3379 14.74 12.0412 15.8493 13.1282 16.5457H5.29326L19.3942 4.51682V11.2002C18.5772 10.2729 17.2782 9.67288 15.8134 9.67288ZM19.3942 13.491V16.5457H15.8134C13.8363 16.5457 12.2327 15.1783 12.2327 13.491C12.2327 11.8043 13.8363 10.4369 15.8134 10.4369C17.7913 10.4369 19.3942 11.8043 19.3942 13.491ZM18.4032 4.28353L5.01912 15.6997C5.95661 9.77278 11.455 5.08157 18.4032 4.28353ZM5.02047 19.3002L18.4025 30.7181C11.455 29.9183 5.95593 25.2277 5.02047 19.3002ZM19.3942 30.4837L5.29394 18.4548H13.1289C12.0418 19.1512 11.3379 20.2605 11.3379 21.5089C11.3379 23.6178 13.3421 25.3276 15.8134 25.3276C17.2782 25.3276 18.5772 24.7276 19.3942 23.8008V30.4837ZM19.3942 21.5089C19.3942 23.1968 17.7913 24.5642 15.8134 24.5642C13.8363 24.5642 12.2327 23.1968 12.2327 21.5089C12.2327 19.8222 13.8363 18.4548 15.8134 18.4548H19.3942V21.5089ZM25.2127 25.3276C27.6847 25.3276 29.6883 23.6178 29.6883 21.5089C29.6883 20.2605 28.985 19.1512 27.8986 18.4548H35.7329L21.6326 30.4837V23.8002C22.4483 24.7276 23.7486 25.3276 25.2127 25.3276ZM21.6326 21.5089V18.4548H25.2127C27.1899 18.4548 28.7934 19.8222 28.7934 21.5089C28.7934 23.1968 27.1899 24.5642 25.2127 24.5642C23.2348 24.5642 21.6326 23.1968 21.6326 21.5089ZM22.6229 30.717L36.007 19.3007C35.0695 25.2277 29.5712 29.9189 22.6229 30.717ZM20.7371 17.6914V31.9458H20.2897V17.6914H3.58006V17.3091H20.2897V3.05471H20.7371V17.3091H37.4461V17.6914H20.7371Z" fill="white"/>
<path d="M54.7947 12.5497H56.1972C59.2933 12.5497 60.9571 14.3017 60.9571 17.5002C60.9571 20.3095 59.1309 22.3121 56.6203 22.3121H54.7947V12.5497ZM46.0913 27.5132H58.609C64.8032 27.5132 69.4324 23.3411 69.4324 17.7785C69.4324 12.049 64.4126 7.46002 58.0546 7.46002H46.0913V27.5132Z" fill="white"/>
<path d="M54.7947 12.5497H56.1972C59.2933 12.5497 60.9571 14.3017 60.9571 17.5002C60.9571 20.3095 59.1309 22.3121 56.6203 22.3121H54.7947V12.5497ZM46.0913 27.5132H58.609C64.8032 27.5132 69.4324 23.3411 69.4324 17.7785C69.4324 12.049 64.4126 7.46002 58.0546 7.46002H46.0913V27.5132Z" stroke="white" stroke-width="0.288" stroke-miterlimit="10"/>
<path d="M71.8779 27.5132H80.5827V7.46002H71.8779V27.5132Z" fill="white"/>
<path d="M92.7748 11.6041H93.8511C95.3504 11.6041 96.1322 12.4386 96.1322 13.996C96.1322 15.3587 95.2854 16.1654 93.8511 16.1654H92.7748V11.6041ZM84.1025 27.5129H92.7748V19.7248H93.4923C94.6654 19.7248 95.6435 20.1146 96.2628 20.9213C97.1428 22.0058 98.3172 24.0915 99.0665 25.9278L99.6865 27.5129H108.26L106.728 24.3144C105.522 21.7275 104.413 19.9755 103.403 18.8627C102.816 18.2512 102.424 17.9451 101.706 17.6391C103.631 16.833 104.674 15.3033 104.674 13.1893C104.674 9.79615 101.74 7.45978 97.4365 7.45978H84.1025V27.5129Z" fill="white"/>
<path d="M109.499 7.46002H118.204V17.2501C118.302 16.6941 118.465 16.2766 118.725 15.9428L125.93 7.46002H134.928L126.289 17.167L134.896 27.5132H124.822L118.725 19.5582C118.399 19.1413 118.269 18.7521 118.204 18.1954V27.5132H109.499V7.46002Z" fill="white"/>
<path d="M135.253 20.7544C135.906 21.1713 136.427 21.4774 136.754 21.6443C138.221 22.3955 140.078 22.8402 141.643 22.8402C143.078 22.8402 144.089 22.2841 144.089 21.5051C144.089 20.8381 143.599 20.3369 142.36 19.7808L139.687 18.5849C136.916 17.3336 135.449 15.4979 135.449 13.2175C135.449 9.62923 139.165 7.12655 144.577 7.12655C146.24 7.12655 147.87 7.37659 149.369 7.87724C150.413 8.23873 151.001 8.54477 152.336 9.3509V15.387C151.26 14.1351 150.674 13.6899 149.566 13.0783C148.587 12.5777 146.989 12.1048 146.208 12.1048C145.001 12.1048 144.186 12.6891 144.186 13.4958C144.186 14.302 145.034 14.9972 147.12 15.9708L149.338 16.9998C152.173 18.2789 153.412 19.6977 153.412 21.6165C153.412 25.3711 149.304 27.8744 143.176 27.8744C141.643 27.8744 140.111 27.6798 138.709 27.4015C137.536 27.1231 136.884 26.9014 135.253 26.261V20.7544Z" fill="white"/>
<path fill-rule="evenodd" clip-rule="evenodd" d="M19.415 16.5814H20.2936V18.0193H19.415V16.5814Z" fill="white"/>
<path fill-rule="evenodd" clip-rule="evenodd" d="M20.7358 16.798H21.6144V18.2352H20.7358V16.798Z" fill="white"/>
</svg>
