<svg width="40" height="40" viewBox="0 0 40 40" fill="none" xmlns="http://www.w3.org/2000/svg">
<path d="M6.3877 13.5495H33.6895C35.1031 13.5495 36.249 12.4035 36.249 10.99C36.249 9.57632 35.1031 8.43042 33.6895 8.43042H6.3877C4.97406 8.43042 3.82812 9.57632 3.82812 10.99C3.82812 12.4035 4.97406 13.5495 6.3877 13.5495ZM33.6895 18.6686H6.3877C4.97406 18.6686 3.82812 19.8145 3.82812 21.2282C3.82812 22.6417 4.97402 23.7877 6.3877 23.7877H33.6895C35.1031 23.7877 36.249 22.6417 36.249 21.2282C36.249 19.8146 35.1031 18.6686 33.6895 18.6686ZM33.6895 28.9068H6.3877C4.97406 28.9068 3.82812 30.0527 3.82812 31.4664C3.82812 32.8799 4.97402 34.0259 6.3877 34.0259H33.6895C35.1031 34.0259 36.249 32.8799 36.249 31.4664C36.249 30.0528 35.1031 28.9068 33.6895 28.9068Z" fill="white"/>
</svg>
