<svg width="30" height="30" viewBox="0 0 30 30" fill="none" xmlns="http://www.w3.org/2000/svg">
<path d="M15 15C11.2031 15 8.125 11.9219 8.125 8.125C8.125 4.32812 11.2031 1.25 15 1.25C18.7969 1.25 21.875 4.32812 21.875 8.125C21.875 11.9219 18.7969 15 15 15ZM15 12.5C15.5745 12.5 16.1434 12.3868 16.6742 12.167C17.205 11.9471 17.6873 11.6248 18.0936 11.2186C18.4998 10.8123 18.8221 10.33 19.042 9.79924C19.2618 9.26844 19.375 8.69953 19.375 8.125C19.375 7.55047 19.2618 6.98156 19.042 6.45076C18.8221 5.91996 18.4998 5.43766 18.0936 5.03141C17.6873 4.62515 17.205 4.30289 16.6742 4.08303C16.1434 3.86316 15.5745 3.75 15 3.75C13.8397 3.75 12.7269 4.21094 11.9064 5.03141C11.0859 5.85188 10.625 6.96468 10.625 8.125C10.625 9.28532 11.0859 10.3981 11.9064 11.2186C12.7269 12.0391 13.8397 12.5 15 12.5ZM28.0106 21.3525C28.2294 21.8287 28.3831 22.515 28.5169 23.4263C28.6096 24.0648 28.6815 24.7062 28.7325 25.3494L28.7469 25.5362L28.75 25.625C28.75 26.4532 28.4213 27.2474 27.836 27.8334C27.2508 28.4193 26.4569 28.749 25.6287 28.75H4.37125C3.5431 28.749 2.74921 28.4193 2.16397 27.8334C1.57872 27.2474 1.25 26.4532 1.25 25.625L1.25312 25.5362L1.2675 25.3494C1.3209 24.7064 1.3928 24.0651 1.48312 23.4263C1.61687 22.515 1.77062 21.8287 1.98937 21.3525C2.95 19.2669 10.0219 16.25 15 16.25C19.9781 16.25 27.05 19.2669 28.0106 21.3525ZM25.6125 22.305C25.4375 22.1519 25.1875 21.9681 24.8781 21.7694C24.1856 21.3237 23.2706 20.8475 22.26 20.4163C19.8375 19.3825 17.2394 18.75 15 18.75C12.7606 18.75 10.1631 19.3825 7.74 20.4163C6.72937 20.8475 5.81437 21.3237 5.12187 21.7694C4.81312 21.9681 4.5625 22.1519 4.3875 22.305C4.3225 22.3625 4.2725 22.4112 4.23937 22.4481C4.155 22.6694 4.04875 23.1612 3.95688 23.7894C3.895 24.2081 3.8425 24.6606 3.79875 25.1144C3.77625 25.3481 3.76 25.5369 3.75063 25.6587C3.75923 25.8178 3.82826 25.9676 3.94361 26.0775C4.05896 26.1874 4.21193 26.2491 4.37125 26.25H25.6287C25.7881 26.2491 25.941 26.1874 26.0564 26.0775C26.1717 25.9676 26.2408 25.8178 26.2494 25.6587C26.24 25.5369 26.2244 25.3481 26.2012 25.115C26.1593 24.6719 26.1066 24.2299 26.0431 23.7894C25.9512 23.1612 25.845 22.6694 25.7606 22.4481C25.7141 22.3976 25.6646 22.3498 25.6125 22.305Z" fill="white"/>
</svg>
